<?xml version="1.0" encoding="UTF-8"?>
<svg xmlns="http://www.w3.org/2000/svg" version="1.1" viewBox="0 0 480 480">
  <defs>
    <style>
      .cls-1 {
        stroke: #000;
        stroke-miterlimit: 10;
        stroke-width: 10px;
      }
    </style>
  </defs>
  <!-- Generator: Adobe Illustrator 28.7.5, SVG Export Plug-In . SVG Version: 1.2.0 Build 176)  -->
  <g>
    <g id="Layer_1">
      <path class="cls-1" d="M323.46,332.89c0,.52,0,1.04-.02,1.56v141.33h-171.55v-140.55c-.02-.78-.03-1.56-.03-2.33,0-49.99,38.42-90.51,85.81-90.51s85.79,40.52,85.79,90.51Z"/>
      <path class="cls-1" d="M391.24,181.49c-37.91,0-69.94,28.94-80.25,68.64,21.19,17.45,35,45.98,35,78.21v91.87h129.01v-142.53c0-53.12-37.49-96.18-83.75-96.18Z"/>
      <path class="cls-1" d="M85.88,181.49c36.64,0,67.59,28.94,77.56,68.64-20.48,17.45-33.82,45.98-33.82,78.21v91.87H4.94v-142.53c0-53.12,36.24-96.18,80.94-96.18Z"/>
      <ellipse class="cls-1" cx="237.66" cy="152.69" rx="85.8" ry="85.68"/>
      <path class="cls-1" d="M384.52,5.31c-38.68,2.09-69.96,29.47-78.69,65.2,21.75,16.44,36.39,41.96,37.99,71.27.39,7.19-.03,14.23-1.16,21.04,14.69,9.49,32.4,14.62,51.2,13.6,47.32-2.56,83.58-42.94,81-90.19-2.58-47.25-43.03-83.48-90.34-80.92Z"/>
      <path class="cls-1" d="M129.06,144.16c.85-32.85,18.17-61.41,43.86-78.04C162.58,31.6,130.99,6.04,92.95,5.06,45.58,3.84,6.19,41.2,4.96,88.51c-1.22,47.3,36.19,86.64,83.56,87.86,15.37.4,29.88-3.29,42.54-10.04-1.5-7.14-2.2-14.56-2-22.17Z"/>
    </g>
  </g>
</svg>