<svg xmlns="http://www.w3.org/2000/svg" xmlns:xlink="http://www.w3.org/1999/xlink" width="1080" zoomAndPan="magnify" viewBox="0 0 810 809.999993" height="1080" preserveAspectRatio="xMidYMid meet" version="1.0"><defs><clipPath id="bb387db46b"><path d="M 52.050781 519.046875 L 174.238281 519.046875 L 174.238281 721.421875 L 52.050781 721.421875 Z M 52.050781 519.046875 " clip-rule="nonzero"/></clipPath><clipPath id="511df99a6b"><path d="M 92.804688 717.765625 C 99.066406 719.898438 106.1875 721.296875 113.179688 721.296875 C 120.167969 721.296875 126.894531 720.097656 133.09375 717.96875 C 133.226562 717.902344 133.355469 717.902344 133.488281 717.832031 C 156.765625 709.3125 173.910156 686.8125 174.238281 659.363281 L 174.238281 519.046875 L 52.050781 519.046875 L 52.050781 659.257812 C 52.382812 686.945312 69.261719 709.445312 92.804688 717.765625 Z M 92.804688 717.765625 " clip-rule="nonzero"/></clipPath><clipPath id="2ad42d8067"><path d="M 166.945312 604.625 L 360.640625 604.625 L 360.640625 764.066406 L 166.945312 764.066406 Z M 166.945312 604.625 " clip-rule="nonzero"/></clipPath><clipPath id="64ac719e9d"><path d="M 231.355469 758.488281 C 241.257812 761.855469 252.511719 764.066406 263.5625 764.066406 C 274.609375 764.066406 285.238281 762.171875 295.035156 758.804688 C 295.246094 758.699219 295.453125 758.699219 295.660156 758.59375 C 332.453125 745.125 359.550781 709.5625 360.070312 669.738281 L 360.070312 604.625 L 166.945312 604.625 L 166.945312 669.691406 C 167.46875 709.773438 194.148438 745.335938 231.355469 758.488281 Z M 231.355469 758.488281 " clip-rule="nonzero"/></clipPath><clipPath id="c15e715716"><path d="M 13 261 L 446 261 L 446 685 L 13 685 Z M 13 261 " clip-rule="nonzero"/></clipPath><clipPath id="a03d3511ad"><path d="M -30.402344 338.171875 L 401.875 236.46875 L 489.242188 607.820312 L 56.96875 709.523438 Z M -30.402344 338.171875 " clip-rule="nonzero"/></clipPath><clipPath id="927010b7a8"><path d="M 445.402344 422.183594 L 381.054688 633.273438 L 164.996094 684.109375 L 13.28125 523.847656 L 77.628906 312.757812 L 293.6875 261.925781 Z M 445.402344 422.183594 " clip-rule="nonzero"/></clipPath><clipPath id="2afc1c1464"><path d="M 519.914062 185.496094 L 701.695312 185.496094 L 701.695312 404.914062 L 519.914062 404.914062 Z M 519.914062 185.496094 " clip-rule="nonzero"/></clipPath><clipPath id="28ae9f8060"><path d="M 580.542969 399.167969 C 589.859375 402.503906 600.457031 404.691406 610.855469 404.691406 C 621.253906 404.691406 631.261719 402.816406 640.480469 399.480469 C 640.679688 399.378906 640.875 399.378906 641.070312 399.273438 C 675.699219 385.941406 701.207031 350.734375 701.695312 309.945312 L 701.695312 185.496094 L 519.914062 185.496094 L 519.914062 309.855469 C 520.40625 350.941406 545.519531 386.148438 580.542969 399.167969 Z M 580.542969 399.167969 " clip-rule="nonzero"/></clipPath><clipPath id="a7bba65468"><path d="M 346 362 L 779 362 L 779 785 L 346 785 Z M 346 362 " clip-rule="nonzero"/></clipPath><clipPath id="51fb868835"><path d="M 303.089844 438.648438 L 735.367188 336.945312 L 822.738281 708.296875 L 390.460938 810 Z M 303.089844 438.648438 " clip-rule="nonzero"/></clipPath><clipPath id="a6adc719a2"><path d="M 778.894531 522.65625 L 714.550781 733.75 L 498.488281 784.582031 L 346.777344 624.324219 L 411.121094 413.230469 L 627.179688 362.398438 Z M 778.894531 522.65625 " clip-rule="nonzero"/></clipPath><clipPath id="e19879ca28"><path d="M 269 25 L 702 25 L 702 448 L 269 448 Z M 269 25 " clip-rule="nonzero"/></clipPath><clipPath id="5320bd9685"><path d="M 225.546875 101.664062 L 657.824219 -0.0390625 L 745.191406 371.3125 L 312.917969 473.015625 Z M 225.546875 101.664062 " clip-rule="nonzero"/></clipPath><clipPath id="67a5bae10f"><path d="M 701.351562 185.675781 L 637.003906 396.765625 L 420.945312 447.601562 L 269.230469 287.339844 L 333.578125 76.25 L 549.636719 25.414062 Z M 701.351562 185.675781 " clip-rule="nonzero"/></clipPath><clipPath id="83c6506770"><path d="M 304 54 L 667 54 L 667 410 L 304 410 Z M 304 54 " clip-rule="nonzero"/></clipPath><clipPath id="d691428693"><path d="M 267.398438 118.023438 L 629.917969 32.730469 L 703.433594 345.203125 L 340.917969 430.496094 Z M 267.398438 118.023438 " clip-rule="nonzero"/></clipPath><clipPath id="9eb08afd1e"><path d="M 666.421875 189.027344 L 612.066406 366.699219 L 432.03125 409.058594 L 304.160156 274.257812 L 358.515625 96.585938 L 538.550781 54.226562 Z M 666.421875 189.027344 " clip-rule="nonzero"/></clipPath><clipPath id="138fcb5fbd"><path d="M 380 395 L 746 395 L 746 752 L 380 752 Z M 380 395 " clip-rule="nonzero"/></clipPath><clipPath id="da62fedcfe"><path d="M 343.761719 459.761719 L 708.351562 373.984375 L 782.039062 687.1875 L 417.453125 772.964844 Z M 343.761719 459.761719 " clip-rule="nonzero"/></clipPath><clipPath id="981ddd8900"><path d="M 745.0625 530.617188 L 690.792969 708.65625 L 508.566406 751.527344 L 380.605469 616.363281 L 434.875 438.324219 L 617.105469 395.453125 Z M 745.0625 530.617188 " clip-rule="nonzero"/></clipPath><clipPath id="ee113cdd26"><path d="M 43 294 L 408 294 L 408 652 L 43 652 Z M 43 294 " clip-rule="nonzero"/></clipPath><clipPath id="7131aff8c7"><path d="M 6.476562 359.289062 L 371.0625 273.511719 L 444.753906 586.714844 L 80.164062 672.492188 Z M 6.476562 359.289062 " clip-rule="nonzero"/></clipPath><clipPath id="1935b13f69"><path d="M 407.773438 430.144531 L 353.503906 608.183594 L 171.277344 651.054688 L 43.320312 515.890625 L 97.589844 337.851562 L 279.816406 294.980469 Z M 407.773438 430.144531 " clip-rule="nonzero"/></clipPath></defs><g clip-path="url(#bb387db46b)"><g clip-path="url(#511df99a6b)"><path fill="#fad02c" d="M 52.050781 519.046875 L 174.238281 519.046875 L 174.238281 721.421875 L 52.050781 721.421875 Z M 52.050781 519.046875 " fill-opacity="1" fill-rule="nonzero"/></g></g><g clip-path="url(#2ad42d8067)"><g clip-path="url(#64ac719e9d)"><path fill="#fad02c" d="M 166.945312 604.625 L 360.019531 604.625 L 360.019531 764.066406 L 166.945312 764.066406 Z M 166.945312 604.625 " fill-opacity="1" fill-rule="nonzero"/></g></g><g clip-path="url(#c15e715716)"><g clip-path="url(#a03d3511ad)"><g clip-path="url(#927010b7a8)"><path fill="#fad02c" d="M -30.402344 338.171875 L 401.875 236.46875 L 489.242188 607.820312 L 56.96875 709.523438 Z M -30.402344 338.171875 " fill-opacity="1" fill-rule="nonzero"/></g></g></g><g clip-path="url(#2afc1c1464)"><g clip-path="url(#28ae9f8060)"><path fill="#fad02c" d="M 519.914062 185.496094 L 701.695312 185.496094 L 701.695312 404.914062 L 519.914062 404.914062 Z M 519.914062 185.496094 " fill-opacity="1" fill-rule="nonzero"/></g></g><g clip-path="url(#a7bba65468)"><g clip-path="url(#51fb868835)"><g clip-path="url(#a6adc719a2)"><path fill="#fad02c" d="M 303.089844 438.648438 L 735.367188 336.945312 L 822.738281 708.296875 L 390.460938 810 Z M 303.089844 438.648438 " fill-opacity="1" fill-rule="nonzero"/></g></g></g><g clip-path="url(#e19879ca28)"><g clip-path="url(#5320bd9685)"><g clip-path="url(#67a5bae10f)"><path fill="#fad02c" d="M 225.546875 101.664062 L 657.824219 -0.0390625 L 745.191406 371.3125 L 312.917969 473.015625 Z M 225.546875 101.664062 " fill-opacity="1" fill-rule="nonzero"/></g></g></g><g clip-path="url(#83c6506770)"><g clip-path="url(#d691428693)"><g clip-path="url(#9eb08afd1e)"><path fill="#fdecab" d="M 267.398438 118.023438 L 629.917969 32.730469 L 703.433594 345.203125 L 340.917969 430.496094 Z M 267.398438 118.023438 " fill-opacity="1" fill-rule="nonzero"/></g></g></g><g clip-path="url(#138fcb5fbd)"><g clip-path="url(#da62fedcfe)"><g clip-path="url(#981ddd8900)"><path fill="#fdecab" d="M 343.761719 459.761719 L 708.351562 373.984375 L 782.039062 687.1875 L 417.453125 772.964844 Z M 343.761719 459.761719 " fill-opacity="1" fill-rule="nonzero"/></g></g></g><g clip-path="url(#ee113cdd26)"><g clip-path="url(#7131aff8c7)"><g clip-path="url(#1935b13f69)"><path fill="#fdecab" d="M 6.476562 359.289062 L 371.0625 273.511719 L 444.753906 586.714844 L 80.164062 672.492188 Z M 6.476562 359.289062 " fill-opacity="1" fill-rule="nonzero"/></g></g></g></svg>